<?xml version="1.0" standalone="no"?>
<!DOCTYPE svg PUBLIC "-//W3C//DTD SVG 20010904//EN"
 "http://www.w3.org/TR/2001/REC-SVG-20010904/DTD/svg10.dtd">
<svg version="1.0" xmlns="http://www.w3.org/2000/svg"
 width="512.000000pt" height="512.000000pt" viewBox="0 0 512.000000 512.000000"
 preserveAspectRatio="xMidYMid meet">
<metadata>
Created by potrace 1.11, written by Peter Selinger 2001-2013
</metadata>
<g transform="translate(0.000000,512.000000) scale(0.100000,-0.100000)"
fill="#000000" stroke="none">
<path d="M2375 4269 c-27 -3 -72 -9 -100 -13 -151 -21 -373 -97 -535 -185
-374 -202 -669 -551 -807 -956 -25 -73 -48 -159 -57 -210 -3 -16 -8 -41 -11
-55 -20 -98 -27 -372 -13 -495 8 -67 26 -163 32 -173 2 -4 7 -24 10 -44 8 -53
50 -174 97 -281 116 -264 296 -486 559 -691 64 -49 231 -143 330 -185 155 -67
267 -97 450 -125 84 -13 392 -14 455 -2 17 3 59 11 95 17 370 63 767 298 1005
594 22 28 43 52 46 55 12 11 119 179 146 230 48 90 123 275 139 343 2 9 6 25
8 35 41 166 51 249 51 427 0 171 -7 242 -39 390 -26 124 -87 288 -151 410
-303 573 -888 926 -1530 922 -71 0 -152 -4 -180 -8z"/>
</g>
</svg>
