<?xml version="1.0" standalone="no"?>
<!DOCTYPE svg PUBLIC "-//W3C//DTD SVG 20010904//EN"
 "http://www.w3.org/TR/2001/REC-SVG-20010904/DTD/svg10.dtd">
<svg version="1.0" xmlns="http://www.w3.org/2000/svg"
 width="160.000000pt" height="160.000000pt" viewBox="0 0 160.000000 160.000000"
 preserveAspectRatio="xMidYMid meet">
<metadata>
Created by potrace 1.11, written by Peter Selinger 2001-2013
</metadata>
<g transform="translate(0.000000,160.000000) scale(0.100000,-0.100000)"
fill="#000000" stroke="none">
<path d="M1051 1579 c-13 -5 -32 -19 -42 -31 -29 -33 -29 -32 -38 -430 l-1
-48 -32 20 c-18 11 -49 20 -68 20 -42 0 -100 -33 -107 -61 -7 -24 -9 -24 -40
1 -31 24 -92 26 -133 5 -26 -13 -62 -63 -59 -81 0 -3 -2 -8 -4 -11 -7 -6 -12
15 -38 147 -26 142 -24 129 -38 164 -35 86 -126 101 -182 32 -13 -16 -16 -35
-14 -81 3 -33 6 -69 9 -80 62 -287 68 -331 71 -510 1 -99 7 -203 13 -231 24
-113 69 -195 141 -259 94 -83 151 -100 346 -99 107 1 126 4 175 27 151 70 265
263 272 462 1 41 -23 107 -49 133 -7 7 -13 32 -14 55 0 23 -2 51 -4 61 -11 60
-18 201 -20 441 -2 229 -5 275 -19 302 -24 47 -79 70 -125 52z"/>
</g>
</svg>
